<?xml version="1.0" encoding="UTF-8" standalone="no"?>
<!-- Created with Inkscape (http://www.inkscape.org/) -->

<svg
   xmlns:dc="http://purl.org/dc/elements/1.1/"
   xmlns:cc="http://creativecommons.org/ns#"
   xmlns:rdf="http://www.w3.org/1999/02/22-rdf-syntax-ns#"
   xmlns:svg="http://www.w3.org/2000/svg"
   xmlns="http://www.w3.org/2000/svg"
   xmlns:xlink="http://www.w3.org/1999/xlink"
   xmlns:sodipodi="http://sodipodi.sourceforge.net/DTD/sodipodi-0.dtd"
   xmlns:inkscape="http://www.inkscape.org/namespaces/inkscape"
   width="320"
   height="320"
   id="svg2"
   version="1.1"
   inkscape:version="0.48.2 r9819"
   sodipodi:docname="favicon.svg"
   inkscape:export-filename="/Users/andrewfarrell/code/guild_bounty/public/media/apple_touch_icon.png"
   inkscape:export-xdpi="40.5"
   inkscape:export-ydpi="40.5">
  <defs
     id="defs4">
    <linearGradient
       id="linearGradient3873">
      <stop
         style="stop-color:#ffffff;stop-opacity:1;"
         offset="0"
         id="stop3875" />
      <stop
         id="stop3881"
         offset="0.51724142"
         style="stop-color:#dad4d4;stop-opacity:1;" />
      <stop
         style="stop-color:#9b8989;stop-opacity:1;"
         offset="1"
         id="stop3877" />
    </linearGradient>
    <linearGradient
       id="linearGradient3905">
      <stop
         style="stop-color:#d83837;stop-opacity:1;"
         offset="0"
         id="stop3907" />
      <stop
         style="stop-color:#ac1817;stop-opacity:1;"
         offset="1"
         id="stop3909" />
    </linearGradient>
    <linearGradient
       id="linearGradient3805">
      <stop
         style="stop-color:#e74c4a;stop-opacity:1;"
         offset="0"
         id="stop3807" />
      <stop
         style="stop-color:#ac1817;stop-opacity:1;"
         offset="1"
         id="stop3809" />
    </linearGradient>
    <linearGradient
       id="linearGradient3922">
      <stop
         style="stop-color:#ba8020;stop-opacity:1;"
         offset="0"
         id="stop3924" />
      <stop
         style="stop-color:#f5e0a0;stop-opacity:1;"
         offset="1"
         id="stop3926" />
    </linearGradient>
    <linearGradient
       id="linearGradient3906">
      <stop
         style="stop-color:#ffea9a;stop-opacity:1;"
         offset="0"
         id="stop3908" />
      <stop
         id="stop3918"
         offset="0.1369863"
         style="stop-color:#dcb92c;stop-opacity:1;" />
      <stop
         style="stop-color:#9f6512;stop-opacity:1;"
         offset="1"
         id="stop3910" />
    </linearGradient>
    <radialGradient
       inkscape:collect="always"
       xlink:href="#linearGradient3906"
       id="radialGradient3912"
       cx="160"
       cy="882.36218"
       fx="160"
       fy="882.36218"
       r="100.5"
       gradientTransform="matrix(1,0,0,1.0995025,0,-87.797232)"
       gradientUnits="userSpaceOnUse" />
    <filter
       id="filter4019"
       inkscape:label="Raised border"
       inkscape:menu="Bevels"
       inkscape:menu-tooltip="Strongly raised border around a flat surface"
       height="1.5"
       width="1.5"
       y="-0.25"
       x="-0.25"
       color-interpolation-filters="sRGB">
      <feGaussianBlur
         id="feGaussianBlur4021"
         stdDeviation="4"
         result="result1" />
      <feComposite
         id="feComposite4023"
         in2="result1"
         in="result1"
         result="result4"
         operator="in" />
      <feGaussianBlur
         id="feGaussianBlur4025"
         stdDeviation="2"
         result="result6"
         in="result4" />
      <feComposite
         id="feComposite4027"
         in2="result4"
         operator="xor"
         in="result6"
         result="result8" />
      <feComposite
         id="feComposite4029"
         in2="result8"
         operator="atop"
         result="fbSourceGraphic"
         in="result4" />
      <feSpecularLighting
         id="feSpecularLighting4031"
         specularExponent="10"
         specularConstant="1.3"
         surfaceScale="3"
         lighting-color="rgb(255,255,255)"
         result="result1"
         in="fbSourceGraphic">
        <feDistantLight
           id="feDistantLight4033"
           azimuth="235"
           elevation="55" />
      </feSpecularLighting>
      <feComposite
         id="feComposite4035"
         in2="fbSourceGraphic"
         operator="atop"
         result="result2"
         in="result1" />
      <feComposite
         id="feComposite4037"
         in2="result2"
         k3="1"
         k2="1"
         operator="arithmetic"
         result="result4"
         in="fbSourceGraphic" />
      <feComposite
         id="feComposite4039"
         in2="SourceGraphic"
         operator="over"
         in="result4"
         result="result9" />
      <feBlend
         id="feBlend4041"
         in2="result2"
         mode="multiply" />
    </filter>
    <radialGradient
       inkscape:collect="always"
       xlink:href="#linearGradient3805"
       id="radialGradient3811"
       cx="162.58588"
       cy="833.79266"
       fx="162.58588"
       fy="833.79266"
       r="100"
       gradientTransform="matrix(0.9040509,-0.6027004,0.41666652,0.62500002,-342.73272,427.56567)"
       gradientUnits="userSpaceOnUse" />
    <radialGradient
       inkscape:collect="always"
       xlink:href="#linearGradient3905"
       id="radialGradient3927"
       gradientUnits="userSpaceOnUse"
       cx="164.80569"
       cy="34.805569"
       fx="164.80569"
       fy="34.805569"
       r="30.582933" />
    <radialGradient
       inkscape:collect="always"
       xlink:href="#linearGradient3805"
       id="radialGradient3935"
       cx="135"
       cy="861.15009"
       fx="135"
       fy="861.15009"
       r="100"
       gradientTransform="matrix(1,0,0,1.1,0,-88.236218)"
       gradientUnits="userSpaceOnUse" />
    <filter
       inkscape:collect="always"
       id="filter3951">
      <feGaussianBlur
         inkscape:collect="always"
         stdDeviation="10.762287"
         id="feGaussianBlur3953" />
    </filter>
    <filter
       inkscape:collect="always"
       id="filter3866">
      <feGaussianBlur
         inkscape:collect="always"
         stdDeviation="11.727733"
         id="feGaussianBlur3868" />
    </filter>
    <radialGradient
       inkscape:collect="always"
       xlink:href="#linearGradient3873"
       id="radialGradient3879"
       cx="160"
       cy="60"
       fx="160"
       fy="60"
       r="161"
       gradientUnits="userSpaceOnUse"
       gradientTransform="matrix(-1.4285714,0,-1.2577188e-8,-2.2360248,388.57142,194.16149)" />
  </defs>
  <sodipodi:namedview
     id="base"
     pagecolor="#ffffff"
     bordercolor="#666666"
     borderopacity="1.0"
     inkscape:pageopacity="0.0"
     inkscape:pageshadow="2"
     inkscape:zoom="1"
     inkscape:cx="164.3098"
     inkscape:cy="158.92857"
     inkscape:document-units="px"
     inkscape:current-layer="g3846"
     showgrid="true"
     inkscape:window-width="1062"
     inkscape:window-height="1201"
     inkscape:window-x="1745"
     inkscape:window-y="15"
     inkscape:window-maximized="0"
     showguides="true"
     inkscape:guide-bbox="true">
    <inkscape:grid
       type="xygrid"
       id="grid2985"
       empspacing="2"
       visible="true"
       enabled="true"
       snapvisiblegridlinesonly="true"
       spacingx="10px"
       spacingy="10px"
       color="#0000ff"
       opacity="0.03529412"
       empcolor="#0000ff"
       empopacity="0.08627451" />
    <sodipodi:guide
       orientation="1,0"
       position="160,260"
       id="guide3849" />
    <sodipodi:guide
       orientation="0,1"
       position="40,160"
       id="guide3851" />
  </sodipodi:namedview>
  <metadata
     id="metadata7">
    <rdf:RDF>
      <cc:Work
         rdf:about="">
        <dc:format>image/svg+xml</dc:format>
        <dc:type
           rdf:resource="http://purl.org/dc/dcmitype/StillImage" />
        <dc:title></dc:title>
      </cc:Work>
    </rdf:RDF>
  </metadata>
  <g
     inkscape:label="bitmap"
     inkscape:groupmode="layer"
     id="layer1"
     transform="translate(0,-732.36218)"
     style="display:none">
    <image
       y="728.36218"
       x="-6.8936157"
       id="image3133"
       xlink:href="file:///Volumes/iomega_ext/Downloads/gw2-devious-teesa-guild-bounty-2.jpg"
       height="334"
       width="326.89362"
       style="opacity:0.40090093" />
    <image
       width="326.89362"
       height="334"
       xlink:href="file:///Volumes/iomega_ext/Downloads/gw2-devious-teesa-guild-bounty-2.jpg"
       id="image3914"
       x="340"
       y="728.36218" />
  </g>
  <g
     inkscape:groupmode="layer"
     id="layer2"
     inkscape:label="iOS icon bg">
    <rect
       style="fill:url(#radialGradient3879);fill-opacity:1;fill-rule:nonzero;stroke:none;stroke-width:2;stroke-miterlimit:4;stroke-opacity:1;stroke-dasharray:none"
       id="rect3871"
       width="320"
       height="320"
       x="0"
       y="0" />
  </g>
  <g
     inkscape:groupmode="layer"
     id="layer5"
     inkscape:label="soft shadow"
     style="opacity:0.54385968;display:none">
    <path
       style="fill:#000000;fill-opacity:1;stroke:#000000;stroke-width:1.01942813px;stroke-linecap:butt;stroke-linejoin:miter;stroke-opacity:1;filter:url(#filter3951)"
       d="m 100,260 c 22.65899,6.44592 0,30 60,50 60,20 41.1178,-15.30553 70,-40 28.8822,-24.69447 40,30 80,0 40,-30 -18.92231,-60.07979 -20,-100 -1.07769,-39.92021 10,-58.14653 10,-100 C 272.94216,62.405133 170.70406,72.816971 190,20 196.25956,6.9944075 160,0 160,0 c 0,0 -42.37349,18.678549 -40,40 2.37349,21.321451 -6.82494,4.546079 -76.824937,14.546079 C -26.824937,64.546079 60,140 60,160 c 0,20 -40,30 -40,80 0,50 68.132177,17.24113 80,20 z"
       id="path4123"
       inkscape:connector-curvature="0"
       sodipodi:nodetypes="czzzzccczzzzc"
       transform="matrix(0.98093921,0,0,0.98094496,-2.3521124,6.4932983)" />
  </g>
  <g
     style="opacity:0.54385968;display:inline"
     inkscape:label="soft shadow (large size)"
     id="g3846"
     inkscape:groupmode="layer">
    <path
       transform="matrix(0.98093921,0,0,0.98094496,-2.3521124,6.4932983)"
       sodipodi:nodetypes="zzzzzzszzzzzz"
       inkscape:connector-curvature="0"
       id="path3848"
       d="m 114.53524,248.23687 c 24.72956,8.62537 10.19432,61.16551 50.97156,61.16551 40.77725,0 33.91026,-49.59663 50.97156,-61.16551 17.0613,-11.56888 61.16587,30.58275 81.55449,10.19425 20.38863,-20.38851 -29.50524,-62.02231 -30.58293,-101.94252 -1.07769,-39.92021 61.16587,-71.359765 40.77724,-91.748269 -20.38863,-20.388504 -63.2647,8.907193 -91.7488,0 -28.4841,-8.907192 -20.38862,-50.971259 -50.97156,-50.971259 -30.58294,0 -25.11818,36.425179 -50.97156,50.971259 -25.853371,14.546079 -81.554488,-30.582756 -91.7488,0 -10.194312,30.582756 47.407872,64.676919 50.971558,91.748269 3.563686,27.07135 -61.16587,50.97126 -40.777246,81.55401 20.388623,30.58276 56.824937,1.56889 81.554488,10.19426 z"
       style="fill:#000000;fill-opacity:0.83255816;stroke:#000000;stroke-width:1.01942813000000010px;stroke-linecap:butt;stroke-linejoin:miter;stroke-opacity:1;filter:url(#filter3866)" />
  </g>
  <g
     style="display:none"
     inkscape:groupmode="layer"
     id="g3861"
     inkscape:label="hard shadow">
    <path
       style="fill:#000000;fill-opacity:1;stroke:#5d0000;stroke-width:16.66666603;stroke-miterlimit:4;stroke-opacity:1;stroke-dasharray:none"
       d="m 160,772.36218 -33.33333,45 -66.666667,0 33.33333,66.66667 L 60,950.69552 l 66.66667,0 L 160,992.36218 193.33333,950.69552 260,950.69552 226.66667,884.02885 260,817.36218 l -66.66667,0 z"
       id="path3863"
       inkscape:connector-curvature="0"
       sodipodi:nodetypes="ccccccccccccc"
       transform="matrix(1.2,0,0,1.2,-32,-900.83462)" />
    <path
       sodipodi:type="arc"
       style="fill:#5d0000;fill-opacity:1;fill-rule:nonzero;stroke:none"
       id="path3865"
       sodipodi:cx="175"
       sodipodi:cy="45"
       sodipodi:rx="30.582933"
       sodipodi:ry="30.582933"
       d="m 205.58293,45 a 30.582933,30.582933 0 1 1 -61.16586,0 30.582933,30.582933 0 1 1 61.16586,0 z"
       transform="matrix(0.98093921,0,0,0.98094496,-11.664362,-14.142349)" />
    <use
       x="0"
       y="0"
       xlink:href="#path3865"
       id="use3937"
       transform="translate(120,49.999826)"
       width="320"
       height="320" />
    <use
       x="0"
       y="0"
       xlink:href="#use3937"
       id="use3939"
       transform="translate(2.5000003e-7,159.99983)"
       width="320"
       height="320" />
    <use
       x="0"
       y="0"
       xlink:href="#use3939"
       id="use3941"
       transform="translate(-120,49.999995)"
       width="320"
       height="320" />
    <use
       x="0"
       y="0"
       xlink:href="#use3941"
       id="use3943"
       transform="translate(-120,-50)"
       width="320"
       height="320" />
    <use
       x="0"
       y="0"
       xlink:href="#use3943"
       id="use3945"
       transform="translate(0,-160)"
       width="320"
       height="320" />
  </g>
  <g
     inkscape:label="hard shadow (large size)"
     id="g3044"
     inkscape:groupmode="layer"
     style="display:inline">
    <path
       transform="matrix(1.2,0,0,1.2,-32,-900.83462)"
       sodipodi:nodetypes="ccccccccccccc"
       inkscape:connector-curvature="0"
       id="path3046"
       d="m 160,772.36218 -33.33333,45 -66.666667,0 33.33333,66.66667 L 60,950.69552 l 66.66667,0 L 160,992.36218 193.33333,950.69552 260,950.69552 226.66667,884.02885 260,817.36218 l -66.66667,0 z"
       style="fill:#000000;fill-opacity:1;stroke:#5d0000;stroke-width:8.33333302;stroke-miterlimit:4;stroke-opacity:1;stroke-dasharray:none" />
    <path
       transform="matrix(0.98093921,0,0,0.98094496,-11.664362,-14.142349)"
       d="m 195.38862,45 a 20.388622,20.388622 0 1 1 -40.77724,0 20.388622,20.388622 0 1 1 40.77724,0 z"
       sodipodi:ry="20.388622"
       sodipodi:rx="20.388622"
       sodipodi:cy="45"
       sodipodi:cx="175"
       id="path3048"
       style="fill:#5d0000;fill-opacity:1;fill-rule:nonzero;stroke:#5d0000;stroke-width:10.19428158;stroke-miterlimit:4;stroke-opacity:1;stroke-dasharray:none"
       sodipodi:type="arc" />
    <use
       x="0"
       y="0"
       xlink:href="#path3048"
       id="use3828"
       transform="translate(120,49.999826)"
       width="320"
       height="320" />
    <use
       x="0"
       y="0"
       xlink:href="#use3828"
       id="use3830"
       transform="translate(2.5000003e-7,159.99988)"
       width="320"
       height="320" />
    <use
       x="0"
       y="0"
       xlink:href="#use3830"
       id="use3832"
       transform="translate(-120,50.000004)"
       width="320"
       height="320" />
    <use
       x="0"
       y="0"
       xlink:href="#use3832"
       id="use3834"
       transform="translate(-120,-50)"
       width="320"
       height="320" />
    <use
       x="0"
       y="0"
       xlink:href="#use3834"
       id="use3836"
       transform="translate(9.6380782e-7,-159.99988)"
       width="320"
       height="320" />
  </g>
  <g
     inkscape:label="combined"
     id="g3033"
     inkscape:groupmode="layer"
     style="display:inline">
    <path
       transform="matrix(1.2,0,0,1.2,-32,-900.83462)"
       sodipodi:nodetypes="ccccccccccccc"
       inkscape:connector-curvature="0"
       id="path3075"
       d="m 160,772.36218 -33.33333,45 -66.666667,0 33.33333,66.66667 L 60,950.69552 l 66.66667,0 L 160,992.36218 193.33333,950.69552 260,950.69552 226.66667,884.02885 260,817.36218 l -66.66667,0 z"
       style="fill:url(#radialGradient3935);fill-opacity:1;stroke:none" />
    <path
       transform="matrix(0.98093921,0,0,0.98094496,-11.664362,-14.142349)"
       d="m 195.38862,45 a 20.388622,20.388681 0 1 1 -40.77724,0 20.388622,20.388681 0 1 1 40.77724,0 z"
       sodipodi:ry="20.388681"
       sodipodi:rx="20.388622"
       sodipodi:cy="45"
       sodipodi:cx="175"
       id="path3035"
       style="fill:url(#radialGradient3927);fill-opacity:1;fill-rule:nonzero;stroke:#ac0b0b;stroke-opacity:1;stroke-width:2.03885635000000009;stroke-miterlimit:4;stroke-dasharray:none"
       sodipodi:type="arc" />
    <use
       x="0"
       y="0"
       xlink:href="#path3035"
       id="use3895"
       transform="translate(120,49.999826)"
       width="320"
       height="320" />
    <use
       x="0"
       y="0"
       xlink:href="#use3895"
       id="use3897"
       transform="translate(1.6957118e-6,160)"
       width="320"
       height="320" />
    <use
       x="0"
       y="0"
       xlink:href="#use3897"
       id="use3899"
       transform="translate(-120,50)"
       width="320"
       height="320" />
    <use
       x="0"
       y="0"
       xlink:href="#use3899"
       id="use3901"
       transform="translate(-120,-50)"
       width="320"
       height="320" />
    <use
       x="0"
       y="0"
       xlink:href="#use3901"
       id="use3903"
       transform="translate(0,-160)"
       width="320"
       height="320" />
  </g>
</svg>
